<svg id="Layer_3" enable-background="new 0 0 64 64" height="512" viewBox="0 0 64 64" width="512" xmlns="http://www.w3.org/2000/svg"><g><path d="m12 18h-4v-4h-2v10h2v-4h4v4h2v-10h-2z"/><path d="m19 14h-2c-.552 0-1 .448-1 1v8c0 .552.448 1 1 1h2c2.757 0 5-2.243 5-5s-2.243-5-5-5zm0 8h-1v-6h1c1.654 0 3 1.346 3 3s-1.346 3-3 3z"/><path d="m29 14h-2c-.552 0-1 .448-1 1v8c0 .552.448 1 1 1h2c2.757 0 5-2.243 5-5s-2.243-5-5-5zm0 8h-1v-6h1c1.654 0 3 1.346 3 3s-1.346 3-3 3z"/><path d="m62 19h-3v-1c0-.552-.448-1-1-1h-9c-.552 0-1 .448-1 1v1h-1c-3.309 0-6 2.691-6 6v29c0 1.654-1.346 3-3 3h-1c-1.302 0-2.402-.839-2.816-2h.816c.552 0 1-.447 1-1v-3c1.654 0 3-1.346 3-3v-44c0-1.654-1.346-3-3-3h-32c-1.654 0-3 1.346-3 3v44c0 1.654 1.346 3 3 3h22v3c0 .553.448 1 1 1h1.059c.5 4.493 4.317 8 8.941 8h1c4.962 0 9-4.037 9-9v-29h1v1c0 .552.448 1 1 1h9c.552 0 1-.448 1-1v-1h3c.552 0 1-.448 1-1v-4c0-.552-.448-1-1-1zm-25 9v15h-34v-15zm-34-2v-14h34v14zm1-23h32c.551 0 1 .449 1 1v6h-34v-6c0-.551.449-1 1-1zm-1 45v-3h34v3c0 .552-.449 1-1 1h-32c-.551 0-1-.448-1-1zm31 3v2h-6v-2zm13-28c-1.103 0-2 .897-2 2v29c0 3.859-3.14 7-7 7h-1c-3.519 0-6.432-2.614-6.92-6h2.021c.465 2.279 2.484 4 4.899 4h1c2.757 0 5-2.243 5-5v-29c0-2.206 1.794-4 4-4h1v2zm10 2h-7v-6h7zm4-2h-2v-2h2z"/><path d="m10 41h20c1.654 0 3-1.346 3-3s-1.346-3-3-3h-20c-1.654 0-3 1.346-3 3s1.346 3 3 3zm21-3c0 .552-.449 1-1 1h-5v-2h5c.551 0 1 .448 1 1zm-21-1h13v2h-13c-.551 0-1-.448-1-1s.449-1 1-1z"/></g></svg>