<?xml version="1.0" encoding="iso-8859-1"?>
<!-- Generator: Adobe Illustrator 19.0.0, SVG Export Plug-In . SVG Version: 6.00 Build 0)  -->
<svg version="1.1" id="Layer_1" xmlns="http://www.w3.org/2000/svg" xmlns:xlink="http://www.w3.org/1999/xlink" x="0px" y="0px"
	 viewBox="0 0 512 512" style="enable-background:new 0 0 512 512;" xml:space="preserve">
<g>
	<g>
		<path d="M448,53.336c-5.89,0-10.656,4.781-10.656,10.664c0,5.898,4.765,10.672,10.656,10.672S458.656,69.899,458.656,64
			C458.656,58.117,453.89,53.336,448,53.336z"/>
	</g>
</g>
<g>
	<g>
		<path d="M64,53.336c-5.891,0-10.664,4.781-10.664,10.664c0,5.898,4.773,10.672,10.664,10.672S74.664,69.898,74.664,64
			C74.664,58.117,69.891,53.336,64,53.336z"/>
	</g>
</g>
<g>
	<g>
		<path d="M64,437.344c-5.891,0-10.664,4.781-10.664,10.656c0,5.891,4.773,10.672,10.664,10.672S74.664,453.891,74.664,448
			C74.664,442.125,69.891,437.344,64,437.344z"/>
	</g>
</g>
<g>
	<g>
		<path d="M448,437.344c-5.891,0-10.656,4.781-10.656,10.656c0,5.891,4.766,10.672,10.656,10.672s10.656-4.781,10.656-10.672
			C458.656,442.125,453.891,437.344,448,437.344z"/>
	</g>
</g>
<g>
	<g>
		<path d="M512,256c0-36.43-7.609-71.094-21.344-102.469V21.336H358.469C327.094,7.617,292.438,0,256,0
			s-71.094,7.617-102.469,21.336H21.336v132.195C7.609,184.906,0,219.57,0,256c0,36.438,7.609,71.094,21.336,102.469v132.203
			h132.188C184.906,504.391,219.563,512,256,512s71.094-7.609,102.469-21.328h132.188V358.469h-0.001
			C504.391,327.094,512,292.438,512,256z M469.344,42.672v71.781c-18.906-28.438-43.359-52.875-71.797-71.781H469.344z
			 M42.664,42.672h71.789C86.016,61.578,61.57,86.016,42.664,114.453V42.672z M42.664,469.344v-71.781
			C61.57,426,86.016,450.438,114.445,469.344H42.664z M469.344,469.344h-71.781c28.422-18.906,52.875-43.344,71.781-71.781V469.344z
			 M421.938,421.939c-21.563,21.563-46.656,38.484-74.594,50.313c-28.922,12.219-59.656,18.422-91.344,18.422
			s-62.422-6.205-91.336-18.424c-27.945-11.828-53.039-28.75-74.602-50.313c-21.555-21.563-38.477-46.656-50.297-74.594
			c-12.234-28.922-18.43-59.656-18.43-91.344s6.195-62.414,18.43-91.328c11.82-27.945,28.742-53.047,50.297-74.602
			c21.563-21.563,46.656-38.484,74.602-50.297C193.578,27.539,224.313,21.336,256,21.336s62.422,6.203,91.344,18.438
			c27.938,11.813,53.031,28.734,74.594,50.297c21.563,21.555,38.469,46.656,50.297,74.602
			c12.234,28.914,18.422,59.641,18.422,91.328s-6.188,62.422-18.422,91.344C460.407,375.283,443.501,400.376,421.938,421.939z"/>
	</g>
</g>
<g>
	<g>
		<path d="M468.219,234.125c-0.906-8.68-2.313-17.172-4.188-25.469c-21.281,8.953-60.922,24.102-105.688,33.617
			c28.797-23,63.063-53.547,86.844-84.953c-26.313-50.414-71.969-88.398-126.172-105.18c-2.891,22.883-9.578,64.813-23.734,108.367
			c-5.516-36.43-14.844-81.352-30.125-117.656c-2.992-0.125-6-0.188-9.016-0.188c-7.281,0-14.625,0.367-22.023,1.133
			c-47.859,4.938-90.383,25.336-123.125,55.727c18.383,13.945,51.32,40.703,81.945,74.711
			c-34.305-13.43-77.859-27.82-116.938-32.727C51.061,180.64,38.663,228.148,43.788,277.89c0.898,8.672,2.313,17.172,4.188,25.453
			c21.266-8.938,60.914-24.094,105.68-33.609c-28.797,23-63.063,53.547-86.852,84.953c26.32,50.406,71.969,88.406,126.18,105.188
			c2.883-22.891,9.586-64.813,23.734-108.375c5.523,36.438,14.836,81.359,30.133,117.656c2.992,0.125,6,0.188,9.023,0.188
			c7.273,0,14.617-0.375,22-1.125c47.875-4.938,90.391-25.344,123.125-55.734c-18.374-13.954-51.311-40.704-81.936-74.704
			C353.375,351.203,396.922,365.594,436,370.5C460.938,331.375,473.344,283.859,468.219,234.125z M315.563,167.101
			c10.234-31.484,16.703-62.21,20.656-85.578c15.281,7.031,29.578,16.063,42.688,26.984c16.125,13.43,29.734,29.117,40.609,46.766
			c-18.297,21.727-43.781,45.805-74.484,70.328l-7.297,5.828c-5.141-17.094-15.484-31.938-29.203-42.672L315.563,167.101z
			 M145.008,99.289c9.68-6.867,19.977-12.82,30.789-17.789c19.063-8.766,39.422-14.313,60.508-16.484
			c4.703-0.484,9.477-0.797,14.234-0.938c9.656,26.711,17.766,60.797,23.648,99.625l1.406,9.234
			c-6.297-1.484-12.852-2.266-19.594-2.266c-11.313,0-22.102,2.203-31.984,6.203l-15.227-16.914
			C186.641,135.359,163.266,114.398,145.008,99.289z M149.219,248.867c-32.36,6.883-62.188,16.633-84.399,24.883
			c-1.977-21.25-0.453-42.438,4.531-63c3.898-16.055,9.828-31.461,17.695-45.977c27.961,4.984,61.531,15.008,98.109,29.328
			l8.719,3.414c-11.828,12.555-19.883,28.695-22.383,46.617L149.219,248.867z M196.429,344.906
			c-10.226,31.485-16.695,62.219-20.656,85.594c-15.281-7.047-29.57-16.063-42.68-27c-16.117-13.422-29.734-29.109-40.609-46.766
			c18.305-21.734,43.781-45.797,74.484-70.328l7.297-5.828c5.133,17.094,15.484,31.938,29.203,42.672L196.429,344.906z M192,256
			c0-35.289,28.711-63.992,64-63.992c35.281,0,64,28.703,64,63.992c0,35.281-28.719,64-64,64C220.711,320,192,291.281,192,256z
			 M367,412.719c-9.688,6.875-19.984,12.813-30.797,17.781c-19.062,8.781-39.422,14.313-60.515,16.5
			c-4.703,0.469-9.469,0.781-14.227,0.938c-9.656-26.719-17.766-60.797-23.648-99.625l-1.398-9.25
			c6.289,1.484,12.844,2.281,19.586,2.281c11.313,0,22.094-2.219,31.984-6.219l15.234,16.922
			C325.36,376.656,348.735,397.61,367,412.719z M326.844,317.906l-8.719-3.406c11.828-12.563,19.875-28.703,22.375-46.625
			l22.281-4.734c32.359-6.883,62.188-16.633,84.406-24.891c1.969,21.258,0.438,42.438-4.531,63
			c-3.906,16.063-9.844,31.469-17.703,46C397,342.25,363.422,332.219,326.844,317.906z"/>
	</g>
</g>
<g>
	<g>
		<path d="M256,245.336c-5.891,0-10.664,4.781-10.664,10.664c0,5.898,4.773,10.672,10.664,10.672s10.664-4.774,10.664-10.672
			C266.664,250.117,261.891,245.336,256,245.336z"/>
	</g>
</g>
<g>
</g>
<g>
</g>
<g>
</g>
<g>
</g>
<g>
</g>
<g>
</g>
<g>
</g>
<g>
</g>
<g>
</g>
<g>
</g>
<g>
</g>
<g>
</g>
<g>
</g>
<g>
</g>
<g>
</g>
</svg>
