<?xml version="1.0" encoding="iso-8859-1"?>
<!-- Generator: Adobe Illustrator 19.1.0, SVG Export Plug-In . SVG Version: 6.00 Build 0)  -->
<svg version="1.1" id="Capa_1" xmlns="http://www.w3.org/2000/svg" xmlns:xlink="http://www.w3.org/1999/xlink" x="0px" y="0px"
	 viewBox="0 0 440.002 440.002" style="enable-background:new 0 0 440.002 440.002;" xml:space="preserve">
<g>
	<path style="fill:#222222;" d="M75.001,0.002c-5.523,0.001-9.999,4.477-10,10v420c0.001,5.523,4.477,9.999,10,10h10h280
		c0.65,0.001,1.299-0.062,1.938-0.188c0.32-0.065,0.656-0.154,0.969-0.25c0.627-0.19,1.234-0.441,1.812-0.75
		c0.021-0.011,0.042-0.02,0.062-0.031c0.257-0.145,0.507-0.302,0.75-0.469c0.281-0.184,0.552-0.382,0.812-0.594
		c0.029-0.024,0.065-0.038,0.094-0.062c0.217-0.189,0.425-0.387,0.625-0.594c0.23-0.229,0.449-0.469,0.656-0.719
		c0.211-0.261,0.41-0.532,0.594-0.812c0.03-0.044,0.065-0.08,0.094-0.125c0.145-0.224,0.28-0.453,0.406-0.688
		c0.15-0.295,0.286-0.598,0.406-0.906c0.092-0.226,0.175-0.455,0.25-0.688c0.044-0.114,0.085-0.228,0.125-0.344
		c0.009-0.031,0.022-0.063,0.031-0.094c0.088-0.309,0.161-0.622,0.219-0.938c0.002-0.01-0.002-0.021,0-0.031
		c0.041-0.249,0.072-0.499,0.094-0.75c0.009-0.084,0.025-0.166,0.031-0.25c0.019-0.239,0.03-0.479,0.031-0.719V20V10
		c-0.001-5.523-4.477-9.999-10-10H75.002L75.001,0.002L75.001,0.002z M155.001,20.002h17c-42.37,16.65-75.004,52.669-87,97.156
		V60.002c0.003-3.689,2.231-7.289,5.531-8.938l60-30C151.913,20.372,153.456,20.005,155.001,20.002z M278.001,20.002h27
		c2.616,0.005,5.215,1.085,7.062,2.938l40,40c1.852,1.848,2.932,4.446,2.938,7.062v20.75
		C339.086,58.608,311.612,33.21,278.001,20.002z M225.001,120.002c22.091,0,40,17.909,40,40s-17.909,40-40,40s-40-17.909-40-40
		S202.91,120.002,225.001,120.002z M85.001,192.846c12.31,45.654,46.35,82.4,90.344,98.438
		c13.936-8.734,34.347-25.333,51.406-39.125c8.97-7.252,22.775-20.777,34.531-32.031c5.878-5.627,11.254-10.697,15.688-14.438
		c2.217-1.87,4.129-3.4,6.281-4.719c1.076-0.659,2.146-1.312,4.125-1.875c0.495-0.141,1.158-0.289,1.938-0.375
		c2.329-0.255,5.682,0.067,8.594,2.812l0.031,0.031c4.375,4.16,3.415,8.201,3.094,10.031c-0.322,1.831-0.774,2.956-1.281,4.156
		c-1.015,2.4-2.333,4.8-3.969,7.594c-3.272,5.587-7.836,12.516-12.844,19.969c-10.016,14.906-21.899,31.871-27.688,41.031
		c-3.27,5.175-5.931,9.422-8.875,14.094c47.773-7.064,87.954-37.439,108.625-79.188v140.75
		c-0.111,12.249-6.527,27.146-17.062,37.031c-5.293,4.521-11.661,7.808-18.719,9.906c-7.006,2.083-14.623,3.062-22.781,3.062
		c-3.637,0-7.74-0.148-12.375-0.438c-4.932-0.308-9.781-0.962-14.562-1.938c-4.477-0.914-8.006-5.243-8-9.812V390h-5.406
		c-1.922,2.581-4.088,4.944-6.531,7.031c-5.293,4.521-11.661,7.808-18.719,9.906c-4.027,1.197-8.247,2.04-12.656,2.531
		c-1.023,0.348-2.106,0.531-3.188,0.531h-6.906h-2.812H95.001c-2.618,0-5.211-1.086-7.062-2.938
		c-1.852-1.848-2.938-4.441-2.938-7.059v-1.094v-83.156L85.001,192.846L85.001,192.846z M290.407,208.658
		c-5.728,0.755-38.763,36.259-57.344,51.281c-19.495,15.761-51.944,40.054-58.781,43.5s1.347,4.688,7.031,3.562
		s9.654-1.479,14.719-1.781c4.822-0.288,9.02-0.437,12.656-0.438c7.227,0,14.007,0.737,20.344,2.312
		c5.175-8.192,11.126-17.61,17.75-28.094c12.213-19.328,47.335-67.255,44.25-70.188
		C290.888,208.677,290.689,208.621,290.407,208.658L290.407,208.658z M208.689,314.815c-3.359,0-7.382,0.127-12.062,0.406
		c-4.68,0.28-9.179,0.824-13.5,1.625v81c4.321,0.881,8.708,1.471,13.188,1.75c4.48,0.28,8.422,0.406,11.781,0.406
		c7.361,0,13.986-0.865,19.906-2.625s10.943-4.418,15.062-7.938c4.12-3.519,7.291-7.952,9.531-13.312s3.375-11.644,3.375-18.844
		c0-7.522-1.135-13.952-3.375-19.312s-5.434-9.779-9.594-13.219c-4.16-3.44-9.137-5.963-14.938-7.562
		C222.263,315.591,215.808,314.815,208.689,314.815L208.689,314.815z M297.032,314.815c-3.359,0-7.351,0.127-12.031,0.406
		c-4.68,0.28-9.21,0.824-13.531,1.625v81c4.321,0.881,8.739,1.471,13.219,1.75c4.48,0.28,8.391,0.406,11.75,0.406
		c7.361,0,14.017-0.865,19.938-2.625c5.92-1.76,10.943-4.418,15.062-7.938c4.12-3.519,7.291-7.952,9.531-13.312
		c2.24-5.36,3.344-11.644,3.344-18.844c0-7.522-1.104-13.952-3.344-19.312s-5.434-9.779-9.594-13.219s-9.137-5.963-14.938-7.562
		C310.638,315.591,304.152,314.815,297.032,314.815z M95.001,315.752v83.156h18.719v-35.281h31.438v35.281h18.719v-83.156h-18.719
		v31.812H113.72v-31.812C113.72,315.752,95.001,315.752,95.001,315.752z M209.657,330.752c9.36,0,16.18,2.239,20.5,6.719
		s6.5,11.092,6.5,19.812c0,8.318-2.261,14.842-6.781,19.562c-4.52,4.721-11.483,7.062-20.844,7.062
		c-1.599,0-2.965-0.023-4.125-0.062c-1.16-0.04-2.181-0.076-3.062-0.156v-52.562c1.201-0.159,2.484-0.272,3.844-0.312
		C207.048,330.775,208.378,330.753,209.657,330.752z M298.001,330.752c9.36,0,16.211,2.239,20.531,6.719s6.469,11.092,6.469,19.812
		c0,8.318-2.261,14.842-6.781,19.562c-4.52,4.721-11.452,7.062-20.812,7.062c-1.599,0-2.965-0.023-4.125-0.062
		c-1.16-0.04-2.181-0.076-3.062-0.156v-52.562c1.201-0.159,2.453-0.272,3.812-0.312
		C295.392,330.775,296.722,330.753,298.001,330.752L298.001,330.752z"/>
</g>
<g>
</g>
<g>
</g>
<g>
</g>
<g>
</g>
<g>
</g>
<g>
</g>
<g>
</g>
<g>
</g>
<g>
</g>
<g>
</g>
<g>
</g>
<g>
</g>
<g>
</g>
<g>
</g>
<g>
</g>
</svg>
