<svg height="512pt" viewBox="-94 0 512 512" width="512pt" xmlns="http://www.w3.org/2000/svg"><path d="m0 0v512h324.855469v-512zm294.855469 30v30.050781h-264.855469v-30.050781zm-264.855469 90.101562v-30.050781h264.855469v30.050781zm264.855469 30.003907v30.046875h-264.855469v-30.046875zm-264.855469 331.894531v-271.84375h264.855469v271.84375zm0 0"/><path d="m162.429688 391.910156c28.882812 0 52.378906-23.496094 52.378906-52.378906s-23.496094-52.378906-52.378906-52.378906c-28.882813 0-52.378907 23.496094-52.378907 52.378906s23.496094 52.378906 52.378907 52.378906zm0-74.757812c12.339843 0 22.378906 10.039062 22.378906 22.378906s-10.039063 22.378906-22.378906 22.378906c-12.339844 0-22.378907-10.039062-22.378907-22.378906s10.039063-22.378906 22.378907-22.378906zm0 0"/><path d="m60.039062 421.957031h204.777344v30.003907h-204.777344zm0 0"/></svg>