<svg height="512pt" viewBox="0 -41 512 512" width="512pt" xmlns="http://www.w3.org/2000/svg"><path d="m310.992188 198.207031c-4.445313 7.933594-6.992188 17.070313-6.992188 26.792969s2.546875 18.859375 6.992188 26.792969l26.792968-26.792969zm0 0"/><path d="m385.792969 176.992188c-7.933594-4.445313-17.070313-6.992188-26.792969-6.992188s-18.859375 2.546875-26.792969 6.992188l26.792969 26.792968zm0 0"/><path d="m179.792969 273.007812-26.792969-26.792968-26.792969 26.792968c7.933594 4.445313 17.070313 6.992188 26.792969 6.992188s18.859375-2.546875 26.792969-6.992188zm0 0"/><path d="m201.007812 251.792969c4.445313-7.933594 6.992188-17.070313 6.992188-26.792969s-2.546875-18.859375-6.992188-26.792969l-26.792968 26.792969zm0 0"/><path d="m104.992188 198.207031c-4.445313 7.933594-6.992188 17.070313-6.992188 26.792969s2.546875 18.859375 6.992188 26.792969l26.792968-26.792969zm0 0"/><path d="m332.207031 273.007812c7.933594 4.445313 17.070313 6.992188 26.792969 6.992188s18.859375-2.546875 26.792969-6.992188l-26.792969-26.792968zm0 0"/><path d="m453.214844 80h-423.214844v-50h33v-30h-63v311.214844l58.785156 58.785156h62.214844v60h330v-60h61v-231.214844zm-385.214844 145c0-46.867188 38.132812-85 85-85s85 38.132812 85 85-38.132812 85-85 85-85-38.132812-85-85zm113 175h-30v-30h30zm60 0h-30v-30h30zm60 0h-30v-30h30zm60 0h-30v-30h30zm60 0h-30v-30h30zm-62-90c-46.867188 0-85-38.132812-85-85s38.132812-85 85-85 85 38.132812 85 85-38.132812 85-85 85zm0 0"/><path d="m179.792969 176.992188c-7.933594-4.445313-17.070313-6.992188-26.792969-6.992188s-18.859375 2.546875-26.792969 6.992188l26.792969 26.792968zm0 0"/><path d="m380.214844 225 26.792968 26.792969c4.445313-7.933594 6.992188-17.070313 6.992188-26.792969s-2.546875-18.859375-6.992188-26.792969zm0 0"/></svg>